<svg xmlns="http://www.w3.org/2000/svg" version="1.1" xmlns:xlink="http://www.w3.org/1999/xlink" xmlns:svgjs="http://svgjs.com/svgjs" viewBox="0 0 640 400" class="" xmlns:xlink="http://www.w3.org/1999/xlink" xmlns:svgjs="http://svgjs.dev/svgjs"><g viewBox="0 0 640 400"><g><g><g><svg viewBox="0 0 640 400" data-background-color="#010536" preserveAspectRatio="xMidYMid meet" height="400" width="640" xmlns="http://www.w3.org/2000/svg" xmlns:xlink="http://www.w3.org/1999/xlink"><rect width="640" height="400" x="0" y="0" opacity="1" fill="#010536" data-fill-palette-color="background" id="background"></rect><g id="tight-bounds" transform="matrix(1,0,0,1,122.24000000000001,105.02013921113691)"><svg viewBox="0 0 395.52 189.95972157772619" height="189.95972157772619" width="395.52"><g><svg viewBox="0 0 395.52 189.95972157772619" height="189.95972157772619" width="395.52"><g><svg viewBox="0 0 395.52 189.95972157772619" height="189.95972157772619" width="395.52"><g id="textblocktransform"><svg viewBox="0 0 395.52 189.95972157772619" height="189.95972157772619" width="395.52" id="textblock"><g><svg viewBox="0 0 395.52 189.95972157772619" height="189.95972157772619" width="395.52"><g transform="matrix(1,0,0,1,0,0)"><svg width="395.52" viewBox="-0.4000000059604645 -31.049999237060547 64.6500015258789 31.049999237060547" height="189.95972157772619" data-palette-color="#ff4136"><path d="M27.6-31.05L33.65 0 19.15 0 18.35-4.75 14.45-4.75 13.6 0-0.4 0 5.65-31.05 27.6-31.05ZM15.65-11.4L17.25-11.4 17.25-17.6 15.65-17.6 15.65-11.4ZM64.25-31.05L64.25 0 50.05 0 50.05-10.9 48.45-10.9 48.45 0 34.25 0 34.25-31.05 48.45-31.05 48.45-19.5 50.05-19.5 50.05-31.05 64.25-31.05Z" opacity="1" transform="matrix(1,0,0,1,0,0)" fill="#ff4136" class="wordmark-text-0" data-fill-palette-color="primary" id="text-0"></path></svg></g></svg></g></svg></g></svg></g></svg></g><defs></defs></svg><rect width="395.52" height="189.95972157772619" fill="none" stroke="none" visibility="hidden"></rect></g></svg></g></g></g></g><rect width="407.51995738394317" height="201.95967458873508" x="117.24000153869702" y="100.02012972348064" rx="2.5" ry="2.5" class="logo-element-hover-target"></rect></svg>