<?xml version="1.0" standalone="no"?>
<svg xmlns:xlink="http://www.w3.org/1999/xlink" id="wave" style="transform:rotate(180deg); transition: 0.3s" viewBox="0 0 1440 490" version="1.1" xmlns="http://www.w3.org/2000/svg"><defs><linearGradient id="sw-gradient-0" x1="0" x2="0" y1="1" y2="0"><stop stop-color="rgba(232, 235, 239, 1)" offset="0%"/><stop stop-color="rgba(52, 152, 219, 1)" offset="100%"/></linearGradient></defs><path style="transform:translate(0, 0px); opacity:1" fill="url(#sw-gradient-0)" d="M0,196L34.3,196C68.6,196,137,196,206,179.7C274.3,163,343,131,411,138.8C480,147,549,196,617,220.5C685.7,245,754,245,823,204.2C891.4,163,960,82,1029,49C1097.1,16,1166,33,1234,57.2C1302.9,82,1371,114,1440,171.5C1508.6,229,1577,310,1646,318.5C1714.3,327,1783,261,1851,212.3C1920,163,1989,131,2057,138.8C2125.7,147,2194,196,2263,179.7C2331.4,163,2400,82,2469,57.2C2537.1,33,2606,65,2674,65.3C2742.9,65,2811,33,2880,24.5C2948.6,16,3017,33,3086,32.7C3154.3,33,3223,16,3291,65.3C3360,114,3429,229,3497,261.3C3565.7,294,3634,245,3703,245C3771.4,245,3840,294,3909,326.7C3977.1,359,4046,376,4114,318.5C4182.9,261,4251,131,4320,122.5C4388.6,114,4457,229,4526,285.8C4594.3,343,4663,343,4731,318.5C4800,294,4869,245,4903,220.5L4937.1,196L4937.1,490L4902.9,490C4868.6,490,4800,490,4731,490C4662.9,490,4594,490,4526,490C4457.1,490,4389,490,4320,490C4251.4,490,4183,490,4114,490C4045.7,490,3977,490,3909,490C3840,490,3771,490,3703,490C3634.3,490,3566,490,3497,490C3428.6,490,3360,490,3291,490C3222.9,490,3154,490,3086,490C3017.1,490,2949,490,2880,490C2811.4,490,2743,490,2674,490C2605.7,490,2537,490,2469,490C2400,490,2331,490,2263,490C2194.3,490,2126,490,2057,490C1988.6,490,1920,490,1851,490C1782.9,490,1714,490,1646,490C1577.1,490,1509,490,1440,490C1371.4,490,1303,490,1234,490C1165.7,490,1097,490,1029,490C960,490,891,490,823,490C754.3,490,686,490,617,490C548.6,490,480,490,411,490C342.9,490,274,490,206,490C137.1,490,69,490,34,490L0,490Z"/></svg>