<?xml version="1.0" standalone="no"?>
<svg xmlns:xlink="http://www.w3.org/1999/xlink" id="wave" style="transform:rotate(180deg); transition: 0.3s" viewBox="0 0 1440 390" version="1.1" xmlns="http://www.w3.org/2000/svg"><defs><linearGradient id="sw-gradient-0" x1="0" x2="0" y1="1" y2="0"><stop stop-color="rgba(51, 51, 51, 1)" offset="0%"/><stop stop-color="rgba(52, 152, 219, 1)" offset="100%"/></linearGradient></defs><path style="transform:translate(0, 0px); opacity:1" fill="url(#sw-gradient-0)" d="M0,117L34.3,149.5C68.6,182,137,247,206,273C274.3,299,343,286,411,286C480,286,549,299,617,260C685.7,221,754,130,823,123.5C891.4,117,960,195,1029,234C1097.1,273,1166,273,1234,227.5C1302.9,182,1371,91,1440,91C1508.6,91,1577,182,1646,208C1714.3,234,1783,195,1851,162.5C1920,130,1989,104,2057,84.5C2125.7,65,2194,52,2263,78C2331.4,104,2400,169,2469,162.5C2537.1,156,2606,78,2674,71.5C2742.9,65,2811,130,2880,149.5C2948.6,169,3017,143,3086,156C3154.3,169,3223,221,3291,214.5C3360,208,3429,143,3497,123.5C3565.7,104,3634,130,3703,130C3771.4,130,3840,104,3909,110.5C3977.1,117,4046,156,4114,175.5C4182.9,195,4251,195,4320,182C4388.6,169,4457,143,4526,143C4594.3,143,4663,169,4731,208C4800,247,4869,299,4903,325L4937.1,351L4937.1,390L4902.9,390C4868.6,390,4800,390,4731,390C4662.9,390,4594,390,4526,390C4457.1,390,4389,390,4320,390C4251.4,390,4183,390,4114,390C4045.7,390,3977,390,3909,390C3840,390,3771,390,3703,390C3634.3,390,3566,390,3497,390C3428.6,390,3360,390,3291,390C3222.9,390,3154,390,3086,390C3017.1,390,2949,390,2880,390C2811.4,390,2743,390,2674,390C2605.7,390,2537,390,2469,390C2400,390,2331,390,2263,390C2194.3,390,2126,390,2057,390C1988.6,390,1920,390,1851,390C1782.9,390,1714,390,1646,390C1577.1,390,1509,390,1440,390C1371.4,390,1303,390,1234,390C1165.7,390,1097,390,1029,390C960,390,891,390,823,390C754.3,390,686,390,617,390C548.6,390,480,390,411,390C342.9,390,274,390,206,390C137.1,390,69,390,34,390L0,390Z"/></svg>