<?xml version="1.0" standalone="no"?>
<svg xmlns:xlink="http://www.w3.org/1999/xlink" id="wave" style="transform:rotate(180deg); transition: 0.3s" viewBox="0 0 1440 490" version="1.1" xmlns="http://www.w3.org/2000/svg"><defs><linearGradient id="sw-gradient-0" x1="0" x2="0" y1="1" y2="0"><stop stop-color="rgba(52, 152, 219, 1)" offset="0%"/><stop stop-color="rgba(51, 51, 51, 1)" offset="100%"/></linearGradient></defs><path style="transform:translate(0, 0px); opacity:1" fill="url(#sw-gradient-0)" d="M0,441L14.1,432.8C28.2,425,56,408,85,367.5C112.9,327,141,261,169,245C197.6,229,226,261,254,236.8C282.4,212,311,131,339,122.5C367.1,114,395,180,424,171.5C451.8,163,480,82,508,106.2C536.5,131,565,261,593,277.7C621.2,294,649,196,678,187.8C705.9,180,734,261,762,310.3C790.6,359,819,376,847,326.7C875.3,278,904,163,932,98C960,33,988,16,1016,32.7C1044.7,49,1073,98,1101,138.8C1129.4,180,1158,212,1186,196C1214.1,180,1242,114,1271,73.5C1298.8,33,1327,16,1355,16.3C1383.5,16,1412,33,1440,89.8C1468.2,147,1496,245,1525,285.8C1552.9,327,1581,310,1609,326.7C1637.6,343,1666,392,1694,359.3C1722.4,327,1751,212,1779,179.7C1807.1,147,1835,196,1864,179.7C1891.8,163,1920,82,1948,98C1976.5,114,2005,229,2019,285.8L2032.9,343L2032.9,490L2018.8,490C2004.7,490,1976,490,1948,490C1920,490,1892,490,1864,490C1835.3,490,1807,490,1779,490C1750.6,490,1722,490,1694,490C1665.9,490,1638,490,1609,490C1581.2,490,1553,490,1525,490C1496.5,490,1468,490,1440,490C1411.8,490,1384,490,1355,490C1327.1,490,1299,490,1271,490C1242.4,490,1214,490,1186,490C1157.6,490,1129,490,1101,490C1072.9,490,1045,490,1016,490C988.2,490,960,490,932,490C903.5,490,875,490,847,490C818.8,490,791,490,762,490C734.1,490,706,490,678,490C649.4,490,621,490,593,490C564.7,490,536,490,508,490C480,490,452,490,424,490C395.3,490,367,490,339,490C310.6,490,282,490,254,490C225.9,490,198,490,169,490C141.2,490,113,490,85,490C56.5,490,28,490,14,490L0,490Z"/></svg>