<?xml version="1.0" standalone="no"?>
<svg xmlns:xlink="http://www.w3.org/1999/xlink" id="wave" style="transform:rotate(180deg); transition: 0.3s" viewBox="0 0 1440 490" version="1.1" xmlns="http://www.w3.org/2000/svg"><defs><linearGradient id="sw-gradient-0" x1="0" x2="0" y1="1" y2="0"><stop stop-color="rgba(52, 152, 219, 1)" offset="0%"/><stop stop-color="rgba(51, 51, 51, 1)" offset="100%"/></linearGradient></defs><path style="transform:translate(0, 0px); opacity:1" fill="url(#sw-gradient-0)" d="M0,441L60,432.8C120,425,240,408,360,367.5C480,327,600,261,720,245C840,229,960,261,1080,236.8C1200,212,1320,131,1440,122.5C1560,114,1680,180,1800,171.5C1920,163,2040,82,2160,106.2C2280,131,2400,261,2520,277.7C2640,294,2760,196,2880,187.8C3000,180,3120,261,3240,310.3C3360,359,3480,376,3600,326.7C3720,278,3840,163,3960,98C4080,33,4200,16,4320,32.7C4440,49,4560,98,4680,138.8C4800,180,4920,212,5040,196C5160,180,5280,114,5400,73.5C5520,33,5640,16,5760,16.3C5880,16,6000,33,6120,89.8C6240,147,6360,245,6480,285.8C6600,327,6720,310,6840,326.7C6960,343,7080,392,7200,359.3C7320,327,7440,212,7560,179.7C7680,147,7800,196,7920,179.7C8040,163,8160,82,8280,98C8400,114,8520,229,8580,285.8L8640,343L8640,490L8580,490C8520,490,8400,490,8280,490C8160,490,8040,490,7920,490C7800,490,7680,490,7560,490C7440,490,7320,490,7200,490C7080,490,6960,490,6840,490C6720,490,6600,490,6480,490C6360,490,6240,490,6120,490C6000,490,5880,490,5760,490C5640,490,5520,490,5400,490C5280,490,5160,490,5040,490C4920,490,4800,490,4680,490C4560,490,4440,490,4320,490C4200,490,4080,490,3960,490C3840,490,3720,490,3600,490C3480,490,3360,490,3240,490C3120,490,3000,490,2880,490C2760,490,2640,490,2520,490C2400,490,2280,490,2160,490C2040,490,1920,490,1800,490C1680,490,1560,490,1440,490C1320,490,1200,490,1080,490C960,490,840,490,720,490C600,490,480,490,360,490C240,490,120,490,60,490L0,490Z"/></svg>