<?xml version="1.0" standalone="no"?>
<svg xmlns:xlink="http://www.w3.org/1999/xlink" id="wave" style="transform:rotate(180deg); transition: 0.3s" viewBox="0 0 1440 490" version="1.1" xmlns="http://www.w3.org/2000/svg"><defs><linearGradient id="sw-gradient-0" x1="0" x2="0" y1="1" y2="0"><stop stop-color="rgba(248, 248, 248, 1)" offset="0%"/><stop stop-color="rgba(52, 152, 219, 1)" offset="100%"/></linearGradient></defs><path style="transform:translate(0, 0px); opacity:1" fill="url(#sw-gradient-0)" d="M0,147L34.3,187.8C68.6,229,137,310,206,343C274.3,376,343,359,411,359.3C480,359,549,376,617,326.7C685.7,278,754,163,823,155.2C891.4,147,960,245,1029,294C1097.1,343,1166,343,1234,285.8C1302.9,229,1371,114,1440,114.3C1508.6,114,1577,229,1646,261.3C1714.3,294,1783,245,1851,204.2C1920,163,1989,131,2057,106.2C2125.7,82,2194,65,2263,98C2331.4,131,2400,212,2469,204.2C2537.1,196,2606,98,2674,89.8C2742.9,82,2811,163,2880,187.8C2948.6,212,3017,180,3086,196C3154.3,212,3223,278,3291,269.5C3360,261,3429,180,3497,155.2C3565.7,131,3634,163,3703,163.3C3771.4,163,3840,131,3909,138.8C3977.1,147,4046,196,4114,220.5C4182.9,245,4251,245,4320,228.7C4388.6,212,4457,180,4526,179.7C4594.3,180,4663,212,4731,261.3C4800,310,4869,376,4903,408.3L4937.1,441L4937.1,490L4902.9,490C4868.6,490,4800,490,4731,490C4662.9,490,4594,490,4526,490C4457.1,490,4389,490,4320,490C4251.4,490,4183,490,4114,490C4045.7,490,3977,490,3909,490C3840,490,3771,490,3703,490C3634.3,490,3566,490,3497,490C3428.6,490,3360,490,3291,490C3222.9,490,3154,490,3086,490C3017.1,490,2949,490,2880,490C2811.4,490,2743,490,2674,490C2605.7,490,2537,490,2469,490C2400,490,2331,490,2263,490C2194.3,490,2126,490,2057,490C1988.6,490,1920,490,1851,490C1782.9,490,1714,490,1646,490C1577.1,490,1509,490,1440,490C1371.4,490,1303,490,1234,490C1165.7,490,1097,490,1029,490C960,490,891,490,823,490C754.3,490,686,490,617,490C548.6,490,480,490,411,490C342.9,490,274,490,206,490C137.1,490,69,490,34,490L0,490Z"/></svg>